<svg width="733" height="350" viewBox="0 0 733 350" fill="none" xmlns="http://www.w3.org/2000/svg">
<rect x="0.500061" y="0.5" width="732" height="349" rx="4.5" stroke="#9747FF" stroke-dasharray="10 5"/>
<path d="M700.681 167.653H690.457L687.325 161.435H667.061L663.929 167.653H653.658L670.607 134.769H683.779L700.681 167.653ZM677.193 141.447L670.699 154.296H683.687L677.193 141.447Z" fill="#B1F149"/>
<path d="M597.495 154.204C599.307 154.389 600.704 155.018 601.687 156.093C602.669 157.137 603.16 158.58 603.16 160.422V167.653H593.673V162.218C593.673 161.143 593.565 160.345 593.35 159.823C593.135 159.27 592.752 158.887 592.199 158.672C591.646 158.426 590.817 158.303 589.712 158.303H574.329V167.653H564.796V134.769H590.034C594.364 134.769 597.664 135.644 599.936 137.394C602.208 139.113 603.345 141.693 603.345 145.131C603.345 149.737 601.395 152.761 597.495 154.204ZM574.329 142.552V150.52H587.686C588.975 150.52 589.988 150.458 590.725 150.336C591.462 150.213 592.076 149.86 592.567 149.276C593.089 148.693 593.35 147.787 593.35 146.559C593.35 145.3 593.089 144.394 592.567 143.842C592.076 143.258 591.462 142.905 590.725 142.783C589.988 142.629 588.975 142.552 587.686 142.552H574.329Z" fill="#B1F149"/>
<path d="M513.062 134.769V142.23H488.514V147.48H512.141V154.941H488.514V160.192H513.062V167.653H478.981V134.769H513.062Z" fill="#B1F149"/>
<path d="M427.861 134.769V142.875H412.847V167.653H403.313V142.875H388.253V134.769H427.861Z" fill="#B1F149"/>
<path d="M337.475 134.769V142.23H312.927V147.48H336.553V154.941H312.927V160.192H337.475V167.653H303.393V134.769H337.475Z" fill="#B1F149"/>
<path d="M229.226 134.769V159.547H252.024V167.653H219.692V134.769H229.226Z" fill="#B1F149"/>
<path d="M147.096 168.574C140.218 168.574 134.937 167.054 131.253 164.014C127.568 160.975 125.726 156.691 125.726 151.165C125.726 145.669 127.568 141.416 131.253 138.407C134.937 135.367 140.218 133.848 147.096 133.848C151.671 133.848 155.555 134.538 158.748 135.92C161.941 137.271 164.351 139.252 165.979 141.861C167.637 144.44 168.466 147.542 168.466 151.165C168.466 154.818 167.637 157.95 165.979 160.56C164.351 163.139 161.941 165.12 158.748 166.501C155.555 167.883 151.671 168.574 147.096 168.574ZM147.096 160.468C154.71 160.468 158.518 157.367 158.518 151.165C158.518 145.024 154.71 141.953 147.096 141.953C139.512 141.953 135.72 145.024 135.72 151.165C135.72 157.367 139.512 160.468 147.096 160.468Z" fill="#B1F149"/>
<path d="M69.9251 150.52C71.8594 151.165 73.3793 152.147 74.4846 153.467C75.6206 154.757 76.1887 156.43 76.1887 158.488C76.1887 161.343 75.2829 163.584 73.4714 165.212C71.6906 166.839 68.8965 167.653 65.0892 167.653H37.1334V134.769H63.7997C71.0458 134.769 74.6688 137.486 74.6688 142.921C74.6688 144.671 74.2543 146.175 73.4253 147.434C72.5963 148.693 71.4296 149.722 69.9251 150.52ZM46.6669 141.907V148.033H60.7139C61.7886 148.033 62.6022 147.987 63.1549 147.895C63.7075 147.803 64.1528 147.542 64.4905 147.112C64.8282 146.651 64.9971 145.945 64.9971 144.993C64.9971 144.011 64.8282 143.304 64.4905 142.875C64.1528 142.414 63.7075 142.138 63.1549 142.046C62.6022 141.954 61.7886 141.907 60.7139 141.907H46.6669ZM62.2338 160.514C63.1856 160.514 63.9225 160.468 64.4444 160.376C64.9664 160.253 65.3963 159.977 65.734 159.547C66.0717 159.086 66.2406 158.365 66.2406 157.382C66.2406 156.4 66.0717 155.693 65.734 155.264C65.3963 154.834 64.9664 154.573 64.4444 154.481C63.9225 154.358 63.1856 154.296 62.2338 154.296H46.6669V160.514H62.2338Z" fill="#B1F149"/>
<path d="M549.757 20.4976V43.2481H491.085V53.2286H547.362V73.9791H491.085V83.9596H549.757V106.71H464.888V20.4976H549.757Z" fill="#B1F149"/>
<path d="M386.414 86.1149L417.187 20.4976H449.038L407.728 106.71H365.1L323.79 20.4976H355.641L386.414 86.1149Z" fill="#B1F149"/>
<path d="M333.344 106.71H301.493L294.429 91.6229H247.012L239.947 106.71H208.097L249.407 20.4976H292.034L333.344 106.71ZM270.72 41.0928L257.07 70.0698H284.371L270.72 41.0928Z" fill="#B1F149"/>
<path d="M154.102 83.8398L184.326 20.4976H217.491L176.759 106.71H133.147L110.517 45.0442L87.8859 106.71H54.7797L27.0001 20.4976L57 20.4976L72.3259 69.5L90.7597 20.4976H130.274L154.102 83.8398Z" fill="#B1F149"/>
<path d="M676.243 34.549C678.428 34.549 680.201 36.1631 680.201 38.1542V38.8598C680.201 40.8509 678.428 42.465 676.243 42.465C674.057 42.465 672.284 40.8509 672.284 38.8598V38.1542C672.284 36.1631 674.057 34.549 676.243 34.549Z" fill="#B1F149"/>
<path d="M676.243 51.8537C678.428 51.8537 680.201 53.4678 680.201 55.4589V56.1645C680.201 58.1557 678.428 59.7698 676.243 59.7698C674.057 59.7698 672.284 58.1557 672.284 56.1645V55.4589C672.284 53.4678 674.057 51.8537 676.243 51.8537Z" fill="#B1F149"/>
<path d="M680.201 72.763C680.201 70.7719 678.428 69.1577 676.243 69.1577C674.057 69.1577 672.284 70.7719 672.284 72.763V73.4686C672.284 75.4597 674.057 77.0738 676.243 77.0738C678.428 77.0738 680.201 75.4597 680.201 73.4686V72.763Z" fill="#B1F149"/>
<path d="M676.243 86.4625C678.428 86.4625 680.201 88.0766 680.201 90.0677V90.7733C680.201 92.7644 678.428 94.3786 676.243 94.3786C674.057 94.3786 672.284 92.7644 672.284 90.7733V90.0677C672.284 88.0766 674.057 86.4625 676.243 86.4625Z" fill="#B1F149"/>
<path fill-rule="evenodd" clip-rule="evenodd" d="M713.469 42.0123C713.469 29.7172 703.502 19.75 691.207 19.75H594.059C587.335 19.75 581.884 25.2006 581.884 31.9243V47.4568C581.884 50.5592 585.635 52.6461 588.738 52.6461C595.551 52.6461 601.074 58.1691 601.074 64.9822C601.074 71.7952 595.551 77.3182 588.738 77.3182C585.635 77.3182 581.884 79.4051 581.884 82.5075V96.0242C581.884 102.153 586.853 107.122 592.982 107.122H691.207C703.502 107.122 713.469 97.1549 713.469 84.8598V42.0123ZM594.059 25.2327H691.207C700.474 25.2327 707.986 32.7452 707.986 42.0123V84.8598C707.986 94.1269 700.474 101.639 691.207 101.639H592.982C589.881 101.639 587.367 99.1254 587.367 96.0242V83.1959C587.528 83.1013 587.737 83.0053 587.981 82.9298C588.29 82.834 588.559 82.8009 588.738 82.8009C598.579 82.8009 606.556 74.8232 606.556 64.9822C606.556 55.1411 598.579 47.1634 588.738 47.1634C588.559 47.1634 588.29 47.1303 587.981 47.0345C587.737 46.959 587.528 46.863 587.367 46.7685V31.9243C587.367 28.2286 590.363 25.2327 594.059 25.2327Z" fill="#B1F149"/>
</svg>
